PathFileType	4	(X/Y/Z)	s08c0103.trc
DataRate	CameraRate	NumFrames	NumMarkers	Units	OrigDataRate	OrigDataStartFrame	OrigNumFrames
200	200	4	50	mm	200	1250	2000
Frame#	Time	racr			lacr			c7			jug			rlel			rdr			llel			ldr			s2			lic			ric			lasi			rasi			rpsi			lpsi			rgt			lgt			rth1			rth2			rth3			rth4			rlfc			rmfc			rsh1			rsh2			rsh3			rsh4			rlmal			rmmal			rcal			rtoe			rmt5			lth1			lth2			lth4			lth3			llfc			lmfc			llmal			lmmal			lcal			lmt5			lsh1			lsh2			lsh3			lsh4			ltoe			SBIKE			LBIKE			RBIKE			
		X1	Y1	Z1	X2	Y2	Z2	X3	Y3	Z3	X4	Y4	Z4	X5	Y5	Z5	X6	Y6	Z6	X7	Y7	Z7	X8	Y8	Z8	X9	Y9	Z9	X10	Y10	Z10	X11	Y11	Z11	X12	Y12	Z12	X13	Y13	Z13	X14	Y14	Z14	X15	Y15	Z15	X16	Y16	Z16	X17	Y17	Z17	X18	Y18	Z18	X19	Y19	Z19	X20	Y20	Z20	X21	Y21	Z21	X22	Y22	Z22	X23	Y23	Z23	X24	Y24	Z24	X25	Y25	Z25	X26	Y26	Z26	X27	Y27	Z27	X28	Y28	Z28	X29	Y29	Z29	X30	Y30	Z30	X31	Y31	Z31	X32	Y32	Z32	X33	Y33	Z33	X34	Y34	Z34	X35	Y35	Z35	X36	Y36	Z36	X37	Y37	Z37	X38	Y38	Z38	X39	Y39	Z39	X40	Y40	Z40	X41	Y41	Z41	X42	Y42	Z42	X43	Y43	Z43	X44	Y44	Z44	X45	Y45	Z45	X46	Y46	Z46	X47	Y47	Z47	X48	Y48	Z48	X49	Y49	Z49	X50	Y50	Z50	
1250	6.2500	571.254921	1325.275769	-116.566918	523.033093	1357.457810	-412.928951	509.951855	1417.068911	-259.145266	484.882594	1257.353583	-268.879571	595.541093	1093.345048	26.897152	784.230954	887.023730	-58.441419	552.356629	1091.931038	-502.366208	780.021245	917.567837	-430.659191	-43.646767	1216.294844	-186.727889	109.843608	1238.747257	-370.395255	135.053810	1201.090815	-40.106098	122.860359	1185.338639	-304.046304	148.337834	1144.719491	-78.110413	-4.989032	1250.689390	-130.805483	-17.567472	1266.773324	-222.203660	48.642264	1081.896157	-14.830505	53.805036	1134.628552	-389.700503	166.949771	957.111422	-24.247165	238.354280	904.802946	-33.586042	272.389917	825.167200	-42.590327	264.411201	927.090627	-47.469939	329.212591	726.798733	-61.173240	301.442877	720.902263	-171.628430	232.018979	635.448462	-30.249383	198.602005	553.884898	-54.091961	133.126598	500.289121	-57.320465	224.240825	542.512197	-82.397006	53.790547	411.673691	-64.304298	78.553266	420.489460	-152.818765	-23.310879	431.170163	-112.183518	208.808116	241.515699	-103.675267	118.010091	274.101025	-38.712131	150.006510	1038.679656	-407.231704	229.293032	1001.824877	-409.250967	252.405475	1028.065567	-398.019648	279.890345	928.926101	-415.211132	362.995453	823.815205	-399.263192	372.795611	794.362861	-292.438837	289.995654	405.814822	-403.876203	316.399325	430.714125	-320.273927	224.979760	367.671658	-365.571567	438.563081	349.226693	-426.536692	340.761725	695.696824	-424.475298	346.984497	610.750182	-409.101642	312.050572	530.877049	-411.515185	370.614733	610.237855	-377.486772	512.524616	397.627779	-359.486619	-208.219068	917.152880	-233.760698	-6.107437	79.889271	-426.355503	-5.272813	79.714213	-28.177663	
1251	6.2550	571.726615	1322.124478	-115.157587	524.412585	1355.568600	-412.873016	510.758096	1415.445502	-258.678188	484.971624	1255.885579	-269.079997	595.811570	1090.905379	27.833718	785.448580	886.556083	-57.725450	552.764796	1090.151161	-502.548996	780.413860	916.401866	-429.907077	-42.278810	1214.057306	-187.643959	111.869387	1236.693697	-374.745716	136.105371	1199.279782	-41.256580	124.680218	1182.656273	-306.222519	149.328411	1143.007205	-79.215189	-4.199600	1248.691336	-131.677198	-16.315530	1264.213608	-223.466308	46.716192	1082.008402	-15.133600	54.142306	1129.835445	-390.791064	170.755829	957.661435	-24.166299	243.275358	907.083903	-33.615519	278.974901	827.826393	-42.308788	268.858626	929.992220	-47.277877	337.200299	731.370871	-61.772658	310.964022	723.741308	-169.506445	238.087204	642.168470	-30.400029	203.804352	561.789906	-52.555172	135.837464	509.118678	-57.585050	228.143261	548.728359	-83.162031	54.641145	422.771067	-64.305062	79.764362	430.762045	-152.830197	-22.185753	443.492535	-112.068965	206.994617	250.481111	-103.678625	116.714073	284.378489	-38.696753	148.949228	1031.461386	-408.134628	227.561680	993.335040	-410.397706	251.168148	1019.333202	-399.940734	276.933011	919.554028	-415.841313	359.073383	814.275723	-399.884194	368.686851	784.557637	-293.082550	291.655728	395.020332	-404.062120	318.076561	418.572487	-318.696265	226.908127	357.084505	-365.438669	440.499519	338.428031	-426.227845	338.728241	685.032600	-424.355936	345.958209	600.562486	-409.538692	312.063756	519.690435	-410.966980	369.560699	600.596780	-377.754006	514.493169	386.741953	-359.236860	-208.204872	917.023350	-233.163701	-6.011982	79.873331	-426.352012	-5.155240	79.892682	-28.030659	
1252	6.2600	572.089899	1319.720812	-113.195699	525.734529	1353.690048	-412.516872	511.515796	1414.024077	-257.936685	485.155168	1254.568739	-268.513167	596.628796	1089.017369	28.991060	786.204565	886.147690	-56.956619	553.864203	1088.706839	-502.687118	780.779186	915.087801	-429.033479	-40.878192	1211.901344	-188.851359	114.144888	1234.704012	-379.434359	137.204812	1197.737409	-42.533567	126.907107	1179.833291	-308.661979	150.325735	1141.535270	-80.351863	-3.111047	1246.571745	-132.994253	-15.173028	1261.470376	-224.858941	48.759381	1079.904623	-16.100137	54.745141	1124.844096	-392.052754	174.672001	958.404407	-23.980763	248.368459	909.571602	-33.433164	286.198256	831.491856	-42.285921	273.294625	932.978579	-47.655059	345.084201	736.050028	-62.516635	313.034994	730.632043	-175.339519	244.400822	649.119917	-30.784879	208.376192	569.453618	-52.529917	139.101671	518.307415	-57.734611	232.498415	556.279204	-82.656370	56.164342	433.900070	-64.292690	81.387653	441.397203	-152.749049	-20.471505	455.872752	-111.804736	205.745154	259.414000	-103.879182	116.128872	294.593363	-38.681213	148.124383	1024.089771	-409.227473	226.079504	984.832579	-411.535448	250.173184	1010.515830	-401.751015	274.171463	910.119622	-416.372408	355.186043	804.417936	-400.319556	364.542133	774.605514	-293.584710	292.648715	384.436706	-404.090418	319.717431	408.778029	-319.601315	228.137471	346.862348	-365.324546	441.735381	327.579234	-425.945541	336.147393	674.698470	-424.607713	344.602203	590.366430	-409.789021	311.861308	508.797963	-410.518066	368.187557	590.652108	-377.703456	515.833555	375.754796	-358.906917	-207.876376	918.170475	-238.555850	-5.942007	79.899252	-426.323199	-5.085928	79.903170	-28.001733	
1253	6.2650	572.154923	1317.786330	-111.100584	526.918145	1351.978870	-412.189850	512.178728	1412.710070	-257.055660	485.269061	1253.342153	-267.583135	596.921436	1087.489507	30.573445	786.408224	885.757475	-56.025772	555.641166	1087.388086	-502.721726	781.294038	913.038834	-427.659357	-39.580466	1209.756077	-190.531236	116.612979	1232.757970	-384.301351	138.289147	1196.422093	-43.949731	129.436740	1177.004434	-311.507677	150.525427	1140.296001	-82.032723	-1.855969	1244.556499	-134.765347	-13.669014	1258.974880	-226.897725	50.798163	1077.697002	-19.021024	55.505301	1119.799371	-393.473817	178.623406	959.351099	-23.843877	253.473223	912.301560	-33.303804	292.965650	834.914157	-42.721499	278.174714	936.108327	-47.648792	353.024720	741.088286	-63.303424	321.178767	735.320727	-176.121747	250.691674	656.334564	-31.408683	213.140579	577.290572	-52.835783	142.794119	527.650273	-57.879289	236.987168	563.561554	-82.881634	58.326958	445.032285	-64.232682	83.625918	452.008325	-152.635318	-18.105097	468.236249	-111.508955	205.056920	268.608686	-103.881265	116.190000	305.025830	-38.739285	147.660000	1017.106863	-410.478945	224.844400	976.283975	-412.735353	249.384574	1001.809224	-403.803905	271.669915	900.766312	-416.711621	351.514302	794.497994	-401.006336	360.316279	764.587019	-293.989190	293.095234	374.015084	-404.264215	331.574609	407.730089	-333.374993	228.817515	336.891635	-365.271339	442.367305	316.674768	-425.706622	333.172500	664.359848	-424.801943	343.075458	580.286328	-410.336306	311.082706	498.151233	-410.545450	366.401594	580.683859	-377.904042	516.601205	364.133919	-358.152384	-208.660849	918.491115	-238.957327	-5.872483	79.923615	-426.290827	-5.012945	79.884497	-27.979889	
